<svg xmlns="http://www.w3.org/2000/svg" version="1.1" xmlns:xlink="http://www.w3.org/1999/xlink" xmlns:svgjs="http://svgjs.dev/svgjs" width="1500" height="1500" viewBox="0 0 1500 1500"><rect width="1500" height="1500" fill="#121212"></rect><g transform="matrix(0.24801587301587302,0,0,0.24801587301587302,562.7359847545313,248.78048780487802)"><svg viewBox="0 0 122 328" data-background-color="#121212" preserveAspectRatio="xMidYMid meet" height="4032" width="1500" xmlns="http://www.w3.org/2000/svg" xmlns:xlink="http://www.w3.org/1999/xlink"><g id="tight-bounds" transform="matrix(1,0,0,1,0.41061210353802835,0.39999999999997726)"><svg viewBox="0 0 121.1787757929239 327.2" height="327.2" width="121.1787757929239"><g><svg viewBox="0 0 216.13633802816904 583.598978782112" height="327.2" width="121.1787757929239"><g transform="matrix(1,0,0,1,0,256.39897878211195)"><svg viewBox="0 0 216.13633802816904 327.2" height="327.2" width="216.13633802816904"><g id="textblocktransform"><svg viewBox="0 0 216.13633802816904 327.2" height="327.2" width="216.13633802816904" id="textblock"><g><svg viewBox="0 0 216.13633802816904 327.2" height="327.2" width="216.13633802816904"><g transform="matrix(1,0,0,1,0,0)"><svg width="216.13633802816904" viewBox="4.25 -35.5 23.45 35.5" height="327.2" data-palette-color="url(#19e66d80-a3ec-428b-9556-57e082752ebe)"></svg></g></svg></g></svg></g></svg></g><g transform="matrix(1,0,0,1,41.28204056338029,0)"><svg viewBox="0 0 133.57225690140845 230.22297878211197" height="230.22297878211197" width="133.57225690140845"><g><svg xmlns="http://www.w3.org/2000/svg" xmlns:xlink="http://www.w3.org/1999/xlink" version="1.1" x="0" y="0" viewBox="21.679106830508616 1 56.85827385947762 98" enable-background="new 0 0 100 100" xml:space="preserve" height="230.22297878211197" width="133.57225690140845" class="icon-icon-0" data-fill-palette-color="accent" id="icon-0"></svg></g></svg></g><g></g></svg></g><defs></defs><mask id="a8748502-f62e-4807-84bc-3e5d1594680e"><g id="SvgjsG2564"><svg viewBox="0 0 121.1787757929239 327.2" height="327.2" width="121.1787757929239"><g><svg viewBox="0 0 216.13633802816904 583.598978782112" height="327.2" width="121.1787757929239"><g transform="matrix(1,0,0,1,0,256.39897878211195)"><svg viewBox="0 0 216.13633802816904 327.2" height="327.2" width="216.13633802816904"><g id="SvgjsG2563"><svg viewBox="0 0 216.13633802816904 327.2" height="327.2" width="216.13633802816904" id="SvgjsSvg2562"><g><svg viewBox="0 0 216.13633802816904 327.2" height="327.2" width="216.13633802816904"><g transform="matrix(1,0,0,1,0,0)"><svg width="216.13633802816904" viewBox="4.25 -35.5 23.45 35.5" height="327.2" data-palette-color="url(#19e66d80-a3ec-428b-9556-57e082752ebe)"><path d="M8.75 0L4.25 0 4.25-35.5 27.7-35.5 27.7-31.5 8.75-31.5 8.75-19.65 24.7-19.65 24.7-15.9 8.75-15.9 8.75 0Z" opacity="1" transform="matrix(1,0,0,1,0,0)" fill="white" class="wordmark-text-0" id="SvgjsPath2561"></path></svg></g></svg></g></svg></g></svg></g><g transform="matrix(1,0,0,1,41.28204056338029,0)"><svg viewBox="0 0 133.57225690140845 230.22297878211197" height="230.22297878211197" width="133.57225690140845"><g><svg xmlns="http://www.w3.org/2000/svg" xmlns:xlink="http://www.w3.org/1999/xlink" version="1.1" x="0" y="0" viewBox="21.679106830508616 1 56.85827385947762 98" enable-background="new 0 0 100 100" xml:space="preserve" height="230.22297878211197" width="133.57225690140845" class="icon-icon-0" data-fill-palette-color="accent" id="SvgjsSvg2560"><g fill="black"><path fill-rule="evenodd" clip-rule="evenodd" d="M30.545 28.822C29.38 36.039 30.875 43.672 37.045 47.863 30.758 19.81 45.756 8.664 59.646 1 43.466 24.046 76.542 24.644 78.423 51.13 80.028 73.71 64.507 91.317 46.639 99 46.845 76.175 24.089 73.067 21.801 54.397 20.905 47.094 25.062 33.766 30.545 28.822" fill="black"></path></g></svg></g></svg></g><g></g></svg></g><defs><mask></mask></defs></svg><rect width="121.1787757929239" height="327.2" fill="black" stroke="none" visibility="hidden"></rect></g></mask><linearGradient x1="0" x2="1" y1="0.578" y2="0.595" id="19e66d80-a3ec-428b-9556-57e082752ebe"><stop stop-color="#6ee2f5" offset="0"></stop><stop stop-color="#6454f0" offset="1"></stop></linearGradient><rect width="121.1787757929239" height="327.2" fill="url(#19e66d80-a3ec-428b-9556-57e082752ebe)" mask="url(#a8748502-f62e-4807-84bc-3e5d1594680e)" data-fill-palette-color="primary"></rect><mask id="2cc871c4-6ab1-4933-a6de-d4869669b572"><g id="SvgjsG2573"><svg viewBox="0 0 121.1787757929239 327.2" height="327.2" width="121.1787757929239"><g><svg viewBox="0 0 216.13633802816904 583.598978782112" height="327.2" width="121.1787757929239"><g transform="matrix(1,0,0,1,0,256.39897878211195)"><svg viewBox="0 0 216.13633802816904 327.2" height="327.2" width="216.13633802816904"><g id="SvgjsG2572"><svg viewBox="0 0 216.13633802816904 327.2" height="327.2" width="216.13633802816904" id="SvgjsSvg2571"><g><svg viewBox="0 0 216.13633802816904 327.2" height="327.2" width="216.13633802816904"><g transform="matrix(1,0,0,1,0,0)"><svg width="216.13633802816904" viewBox="4.25 -35.5 23.45 35.5" height="327.2" data-palette-color="url(#19e66d80-a3ec-428b-9556-57e082752ebe)"></svg></g></svg></g></svg></g></svg></g><g transform="matrix(1,0,0,1,41.28204056338029,0)"><svg viewBox="0 0 133.57225690140845 230.22297878211197" height="230.22297878211197" width="133.57225690140845"><g><svg xmlns="http://www.w3.org/2000/svg" xmlns:xlink="http://www.w3.org/1999/xlink" version="1.1" x="0" y="0" viewBox="21.679106830508616 1 56.85827385947762 98" enable-background="new 0 0 100 100" xml:space="preserve" height="230.22297878211197" width="133.57225690140845" class="icon-icon-0" data-fill-palette-color="accent" id="SvgjsSvg2570"><g fill="white"><path fill-rule="evenodd" clip-rule="evenodd" d="M30.545 28.822C29.38 36.039 30.875 43.672 37.045 47.863 30.758 19.81 45.756 8.664 59.646 1 43.466 24.046 76.542 24.644 78.423 51.13 80.028 73.71 64.507 91.317 46.639 99 46.845 76.175 24.089 73.067 21.801 54.397 20.905 47.094 25.062 33.766 30.545 28.822" fill="white"></path></g></svg></g></svg></g><g></g></svg></g><defs><mask></mask></defs><mask><g id="SvgjsG2569"><svg viewBox="0 0 121.1787757929239 327.2" height="327.2" width="121.1787757929239"><g><svg viewBox="0 0 216.13633802816904 583.598978782112" height="327.2" width="121.1787757929239"><g transform="matrix(1,0,0,1,0,256.39897878211195)"><svg viewBox="0 0 216.13633802816904 327.2" height="327.2" width="216.13633802816904"><g id="SvgjsG2568"><svg viewBox="0 0 216.13633802816904 327.2" height="327.2" width="216.13633802816904" id="SvgjsSvg2567"><g><svg viewBox="0 0 216.13633802816904 327.2" height="327.2" width="216.13633802816904"><g transform="matrix(1,0,0,1,0,0)"><svg width="216.13633802816904" viewBox="4.25 -35.5 23.45 35.5" height="327.2" data-palette-color="url(#19e66d80-a3ec-428b-9556-57e082752ebe)"><path d="M8.75 0L4.25 0 4.25-35.5 27.7-35.5 27.7-31.5 8.75-31.5 8.75-19.65 24.7-19.65 24.7-15.9 8.75-15.9 8.75 0Z" opacity="1" transform="matrix(1,0,0,1,0,0)" fill="black" class="wordmark-text-0" id="SvgjsPath2566"></path></svg></g></svg></g></svg></g></svg></g><g transform="matrix(1,0,0,1,41.28204056338029,0)"><svg viewBox="0 0 133.57225690140845 230.22297878211197" height="230.22297878211197" width="133.57225690140845"><g><svg xmlns="http://www.w3.org/2000/svg" xmlns:xlink="http://www.w3.org/1999/xlink" version="1.1" x="0" y="0" viewBox="21.679106830508616 1 56.85827385947762 98" enable-background="new 0 0 100 100" xml:space="preserve" height="230.22297878211197" width="133.57225690140845" class="icon-icon-0" data-fill-palette-color="accent" id="SvgjsSvg2565"><g fill="black"><path fill-rule="evenodd" clip-rule="evenodd" d="M30.545 28.822C29.38 36.039 30.875 43.672 37.045 47.863 30.758 19.81 45.756 8.664 59.646 1 43.466 24.046 76.542 24.644 78.423 51.13 80.028 73.71 64.507 91.317 46.639 99 46.845 76.175 24.089 73.067 21.801 54.397 20.905 47.094 25.062 33.766 30.545 28.822" fill="black"></path></g></svg></g></svg></g><g></g></svg></g><defs><mask></mask></defs></svg><rect width="121.1787757929239" height="327.2" fill="black" stroke="none" visibility="hidden"></rect></g></mask></svg><rect width="121.1787757929239" height="327.2" fill="black" stroke="none" visibility="hidden"></rect></g></mask><linearGradient x1="0" x2="1" y1="0.578" y2="0.595" id="da79209d-bd5d-45e9-9f36-d347beffadfe"><stop stop-color="#6ee2f5" offset="0"></stop><stop stop-color="#6454f0" offset="1"></stop></linearGradient><rect width="121.1787757929239" height="327.2" fill="url(#da79209d-bd5d-45e9-9f36-d347beffadfe)" mask="url(#2cc871c4-6ab1-4933-a6de-d4869669b572)" data-fill-palette-color="accent"></rect></svg><rect width="121.1787757929239" height="327.2" fill="none" stroke="none" visibility="hidden"></rect></g></svg></g></svg>